<svg width="80" height="40" viewBox="0 0 80 40" fill="none" xmlns="http://www.w3.org/2000/svg">
<path fill-rule="evenodd" clip-rule="evenodd" d="M40.5272 39.9996C43.7645 39.9996 46.0679 39.0027 47.064 38.1306V31.4016C46.317 31.9624 44.8229 32.6476 42.8929 32.6476C41.5232 32.6476 40.5272 32.3362 39.78 31.6508C39.1575 31.0277 38.8462 29.9685 38.8462 28.5356V0H30.6284V8.4112H47.064V16.3862H30.6284V30.5293C30.6284 33.3954 31.5 35.7007 33.0564 37.3205C34.7996 39.065 37.3521 39.9996 40.5272 39.9996M65.6813 39.9992C70.2882 39.9992 73.8368 38.3169 76.2648 35.9494C78.1948 34.0802 79.3776 31.8996 80.0002 29.6566L72.7162 27.2268C72.4049 28.3482 71.7823 29.532 70.7862 30.4666C69.6033 31.5881 67.9847 32.398 65.6813 32.398C63.5645 32.398 61.5723 31.5881 60.1404 30.155C58.7086 28.6597 57.837 26.4791 57.837 23.7376C57.837 20.934 58.7086 18.8157 60.1404 17.3203C61.5723 15.8873 63.5022 15.1395 65.619 15.1395C67.8602 15.1395 69.4166 15.8873 70.5372 17.0088C71.471 17.9433 72.0314 19.1271 72.4049 20.3109L79.8134 17.8187C79.2531 15.6379 78.0702 13.4574 76.3271 11.6506C73.8368 9.22068 70.226 7.47612 65.4322 7.47612C61.012 7.47612 57.0277 9.15834 54.1639 12.0243C51.3 14.9527 49.5569 19.0025 49.5569 23.7376C49.5569 28.4728 51.3623 32.5226 54.2884 35.4509C57.1521 38.3169 61.1988 39.9992 65.6813 39.9992M13.1361 39.9992C17.3073 39.9992 20.7314 38.6908 22.9726 36.5101C24.6535 34.8278 25.6496 32.5849 25.6496 29.9681C25.6496 27.6005 24.778 25.4822 23.1594 23.8622C21.5407 22.2423 19.2372 21.0586 16.3112 20.4978L11.5174 19.5633C9.52523 19.1894 8.40466 18.1926 8.40466 16.8218C8.40466 15.0149 10.1478 13.7689 12.9493 13.7689C14.6924 13.7689 16.1867 14.3297 17.1828 15.3265C17.8053 16.0119 18.2412 16.8842 18.3656 17.881L25.2761 16.3234C25.0893 14.3297 24.1555 12.5851 22.7235 11.1522C20.4823 8.90907 16.996 7.47612 12.8871 7.47612C9.08948 7.47612 5.91434 8.72225 3.73538 10.716C1.86769 12.4604 0.809308 14.8281 0.809308 17.4449C0.809308 19.7501 1.55643 21.6816 3.05056 23.177C4.54469 24.6723 6.72375 25.7937 9.58753 26.4791L14.319 27.6005C16.6847 28.1613 17.743 29.0336 17.743 30.5912C17.743 32.5226 15.9999 33.6441 13.1361 33.6441C11.0817 33.6441 9.40075 32.9588 8.34236 31.8373C7.59525 31.0896 7.1595 30.0927 7.0972 28.9712L0 30.5289C0.186779 32.6472 1.18287 34.5164 2.677 36.0117C5.04273 38.5039 8.84041 39.9992 13.1361 39.9992" fill="white"/>
</svg>
